<?xml version="1.0" encoding="utf-8"?>
<!-- Generator: Adobe Illustrator 17.1.0, SVG Export Plug-In . SVG Version: 6.00 Build 0)  -->
<!DOCTYPE svg PUBLIC "-//W3C//DTD SVG 1.1//EN" "http://www.w3.org/Graphics/SVG/1.1/DTD/svg11.dtd">
<svg version="1.1" id="Layer_1" xmlns="http://www.w3.org/2000/svg" xmlns:xlink="http://www.w3.org/1999/xlink" x="0px" y="0px"
	 viewBox="0 0 19 19" enable-background="new 0 0 19 19" xml:space="preserve">
<g>
	<polygon fill="#B82266" points="8.4,13.5 4.5,15.9 6.2,11.6 1.7,11 5.7,8.8 2.7,5.4 7.1,6.3 7,1.7 9.8,5.4 12.6,1.7 12.4,6.3 
		16.9,5.4 13.8,8.8 17.9,11 13.3,11.6 15.1,15.9 11.2,13.5 9.8,17.9 	"/>
	<path fill="#FFFFFF" d="M12,3.2L11.9,7l3.6-0.8L13,9l3.2,1.7l-3.6,0.5l1.4,3.5l-3.1-2l-1.1,3.6l-1.1-3.6l-3.1,2l1.4-3.5l-3.6-0.5
		L6.5,9L4.1,6.2L7.7,7L7.5,3.2l2.3,2.9L12,3.2 M13.2,0.1l-1.9,2.5L9.8,4.5L8.3,2.6L6.4,0.1l0.1,3.1l0.1,2.4L4.3,5.2l-3-0.7l2,2.3
		l1.6,1.8L2.8,9.8l-2.7,1.4l3,0.4L5.5,12l-0.9,2.3l-1.2,2.9l2.6-1.7l2-1.3l0.7,2.3l1,3l1-3l0.7-2.3l2,1.3l2.6,1.7L15,14.3L14,12
		l2.4-0.3l3-0.4l-2.7-1.4l-2.1-1.1l1.6-1.8l2-2.3l-3,0.7L13,5.7L13,3.3L13.2,0.1L13.2,0.1z"/>
</g>
</svg>
